<?xml version="1.0" encoding="utf-8"?>
<!-- Generator: Adobe Illustrator 22.0.1, SVG Export Plug-In . SVG Version: 6.00 Build 0)  -->
<svg version="1.1" id="html-lego_xA0_Image_1_" xmlns="http://www.w3.org/2000/svg" xmlns:xlink="http://www.w3.org/1999/xlink"
	 x="0px" y="0px" viewBox="0 0 600 600" style="enable-background:new 0 0 600 600;" xml:space="preserve">
<style type="text/css">
	.st0{fill:#FF0000;}
	.st1{fill:#FFFF00;}
	.st2{fill:#FFFFFF;}
</style>
<path class="st0" d="M1,601C1,401,1,201,1,1c200,0,400,0,600,0c0,200,0,400,0,600C401,601,201,601,1,601z"/>
<path class="st1" d="M116.1,404c-10.7,9.4-23.3,13.1-36.4,15c-12.7,1.9-24.6-2.1-34.8-9.4c-9.5-6.7-16.6-15.6-19.3-27.6
	c-1.5-6.9-2.1-13.4-0.3-20.2c12.8-47.6,25.1-95.4,38.8-142.8c6.3-21.8,21.9-35.9,43.2-43.8c13.2-4.9,26.4-5.9,39.4,0
	c6.3,2.8,12,6.8,17.4,10c7.5-3.4,15.3-7.1,23.1-10.5c13.8-6,27.3-3.8,40.8,1.4c2.1,0.8,4.9,0.9,7,0.2c10.4-3.4,20.7-5.9,31.8-5.5
	c12.8,0.4,25.7,0.4,38.5,0c10.1-0.4,19.4,1.9,28.9,4.9c2.6,0.8,5.7,0.5,8.4-0.1c5.3-1.2,10.5-3.6,15.8-4.6
	c15.5-2.8,29.3,0.9,41.3,11.2c1.6,1.4,3.2,2.9,3.8,3.4c8.4-4.1,16.1-8.2,24.1-11.8c14.1-6.3,28-3.9,41.7,1.5c2.1,0.8,5,0.9,7,0.1
	c15-5.8,30-7.8,45.2-0.9c12,5.4,21,14,26.2,26.1c4.6,10.6,4.7,21.3,1.4,32.6c-6.4,21.5-11.8,43.4-17.6,65.1c-0.5,2.1-1,4.1-1.5,6.4
	c1.2,0.5,2.1,1,3,1.2c22.1,6.4,33,22.4,35.2,44.2c1.2,12-3.1,23.9-9.7,34.1c-12.7,19.4-29.9,33-53.8,34.8
	c-18.5,1.4-37.4,2.6-55.3-4.3c-5.8-2.2-11.5-5.1-17.6-7.9c-26.7,16.6-52.8,17.9-76-4c-11.1,10.3-25,15.4-39.7,16.3
	c-15.1,0.9-28.8-4.3-39.5-16.1c-0.9,0.5-1.7,0.8-2.3,1.3c-11.2,10.3-25.1,15-39.6,15.9c-13.5,0.8-26.4-3.5-36.4-13.6
	c-2.6-2.6-4.2-2.7-7.4-0.5c-19.2,13.1-39.6,17.8-61.7,7.6c-2.4-1.1-4.6-2.6-6.8-4.2C120.4,407.9,118.5,406,116.1,404z"/>
<path d="M432.4,384.4c-7.9,8.8-17.7,14.7-29.5,17.1c-10.9,2.2-21.2,0.8-30.5-5.5c-7.7-5.2-11.2-12.9-12.7-22.9
	c-5.4,9.6-11.8,16.9-20.4,22c-10.1,6-20.9,8.7-32.5,6.8c-15.2-2.5-24.2-12.2-27.1-28.8c-1.4,2.2-2.4,3.9-3.5,5.6
	c-10.9,16.7-26.2,25.3-46.2,24.5c-17.4-0.7-27.8-10.7-31.5-29.1c-1.1,1.7-2,3-2.8,4.4c-11.8,18.9-35.9,28.3-55.8,21.8
	c-10.4-3.4-15-8.1-20.1-20.2c-4.5,3.8-9.3,8.3-14.6,12.1c-12,8.7-25.4,12.6-40,8.9c-19.2-4.9-28-19.9-23-39.2
	c7.2-28.1,14.9-56,22.4-84c4.8-17.9,9-35.9,14.6-53.5c6.6-21.1,21.9-33.1,43.5-36.2c18.6-2.7,30.6,5.4,38.5,24
	c5.3-5,10.3-11,16.4-15.2c12.5-8.6,26.3-12,41.2-7c0.9,0.3,2.1,0.5,2.8,1.1c6.5,6,12.4,4.2,19.7,0.7c6-2.9,13.5-3.7,20.3-3.9
	c15.3-0.5,30.7,0,46-0.2c11-0.1,21.3,1.2,28.9,8.5c7.5-2.9,14.1-6.3,21.1-8.1c21.9-5.7,38,4.6,43.2,27.7c2.2-2.9,4-5.3,5.8-7.8
	c9.5-12.8,22-20.2,38-21.2c8.5-0.5,16.6,1.4,23.5,6.8c2.8,2.2,4.9,2.1,7.9,0.3c10.4-6.1,21.5-9,33.5-6.2
	c19.3,4.4,29.1,20.4,24.1,39.5c-7.2,27.6-14.6,55.2-21.8,82.8c-0.8,3-1.2,6.1-1.9,9.9c3.7,0,6.6,0,9.6,0
	c21.6,0.4,35.8,17.9,31.6,39.1c-4.2,21.5-20.6,39.1-42,42.3c-12.6,1.9-25.6,0.8-38.4,0.7c-11.1-0.1-21.3-3.3-30.1-10.3
	C437.8,389.8,435.4,387.2,432.4,384.4z"/>
<path class="st2" d="M387.4,270.1c1.8-2.6,2.9-4,3.9-5.4c10-14.4,19.9-28.7,29.9-43.1c4.6-6.7,10.3-11.7,18.7-12.9
	c13.6-2.1,21.8,6.6,18.3,19.9c-6.1,23.3-12.4,46.6-18.6,69.9c-5.6,20.9-11.1,41.8-16.8,62.6c-3.7,13.6-14.6,21.2-28.3,20
	c-9.8-0.8-14.6-8.1-11.9-17.6c3.2-11.2,6.1-22.4,8.7-34c-5.8,6.4-12.1,11.2-20.8,12.1c-9.3,0.9-13.4-1.6-19.3-12.9
	c-0.8,2.5-1.5,4.4-2.1,6.4c-2.4,9-4.6,18-7.3,27c-3.8,13-15,20.4-28,19c-7.3-0.8-11.6-5.1-11.7-12.4c-0.1-3.1,0.4-6.3,1.2-9.4
	c11.5-43.2,23.1-86.4,34.7-129.6c3.2-11.9,11.1-19.1,23.3-21.1c9.9-1.6,16.1,3,17.7,12.9c2.4,14.5,4.7,28.9,7,43.4
	C386.3,266.1,386.7,267.4,387.4,270.1z"/>
<path class="st2" d="M145.9,275.9c4.2,0,8.3-0.2,12.5,0c5.1,0.2,7.4-2.4,8.6-7.1c3.2-12.8,6.6-25.6,10.1-38.4
	c4-14.6,16.1-23.1,29.5-20.8c9.6,1.7,13.7,8.5,10.9,18.9c-7.2,27.3-14.6,54.6-21.9,82c-4.6,17.1-9.1,34.2-13.7,51.3
	c-4,14.7-16.5,22.8-30.8,20.2c-8.5-1.5-12.5-8.5-10.2-17.1c3.8-14.4,7.4-28.8,11.3-43.2c1.2-4.3-0.5-5.7-4.2-5.7
	c-8.8-0.1-17.7,0-26.5,0c-4.6,0-6.4,2.7-7.4,6.6c-3.4,13-6.7,25.9-10.2,38.9c-3.8,14.5-16,23.1-29.5,20.7c-9.6-1.7-13.7-8.5-11-18.9
	c7.6-28.8,15.2-57.5,22.9-86.3c4.2-15.8,8.3-31.7,12.7-47.4c4-14.4,17-22.4,31.3-19.7c7.9,1.5,12.1,8.6,9.9,16.5
	c-4,14.2-7.8,28.4-11.7,42.6c-1.5,5.5-0.4,6.9,5.4,6.9C137.9,276,141.9,275.9,145.9,275.9z"/>
<path class="st2" d="M283,209c9,0,18-0.1,27,0c11.5,0.2,16.9,7.2,14.3,18.6c-2.7,12-12.9,20.9-25.1,21.2c-5.6,0.2-8.2,2.5-9.6,7.9
	c-9.4,35.4-19,70.6-28.6,105.9c-3.6,13.3-14.7,20.8-28.1,19.4c-7.6-0.8-11.9-5.2-11.8-12.8c0-3.3,0.7-6.6,1.5-9.8
	c9.1-34.2,18.4-68.4,27.6-102.6c1.6-6.1,0.8-7.3-5.6-7.8c-11.5-0.9-16.2-7.2-13.8-18.6c2.7-12.8,13.2-21.5,26.3-21.6
	C265.7,208.9,274.4,209,283,209z"/>
<path class="st2" d="M489.7,381c-4.8,0-9.7,0.1-14.5,0c-15.9-0.5-25.7-9.3-28.3-24.9c-2.5-15.1,0.1-29.9,3.7-44.5
	c6.9-27.7,14.4-55.3,22-82.9c3.9-14.3,17.9-22.5,31.1-19c6.1,1.6,9.2,5.1,9.2,11.4c0,3.4-0.6,7-1.5,10.3
	c-7.6,28.8-15.4,57.5-22.9,86.3c-1.2,4.8-1.6,9.9-1.5,14.8c0.1,5.7,2.6,8.2,8.2,8.7c6.5,0.5,13,0.4,19.4,0.6
	c12.2,0.4,17.4,7.5,14.3,19.3c-3.1,11.9-13.2,19.8-25.5,19.9C499,381,494.4,381,489.7,381C489.7,381,489.7,381,489.7,381z"/>
</svg>
